<svg width="410" height="410" viewBox="0 0 410 410" fill="none" xmlns="http://www.w3.org/2000/svg">
<rect width="410" height="410" fill="white"/>
<path fill-rule="evenodd" clip-rule="evenodd" d="M247 208.796V245C247 268.196 228.196 287 205 287C181.804 287 163 268.196 163 245V165C163 141.804 181.804 123 205 123C228.196 123 247 141.804 247 165V183.949L267 178.59V165C267 130.758 239.242 103 205 103C170.758 103 143 130.758 143 165V245C143 279.242 170.758 307 205 307C239.242 307 267 279.242 267 245V203.437L247 208.796Z" fill="#00A280"/>
<path fill-rule="evenodd" clip-rule="evenodd" d="M335 184.992V245C335 316.797 276.797 375 205 375C136.431 375 80.2613 321.913 75.3489 254.598L55.7264 259.856C63.1853 335.725 127.17 395 205 395C287.843 395 355 327.843 355 245V179.633L335 184.992ZM354.664 154.876C349.457 76.7545 284.441 15 205 15C122.157 15 55 82.1573 55 165V235.204L129.888 215.138L129.916 215.244L159.496 207.319L154.32 188L119 197.424V165C119 117.504 157.504 79 205 79C252.496 79 291 117.504 291 165V245C291 292.496 252.496 331 205 331C157.504 331 119 292.496 119 245V242.902L99.0488 248.247C100.765 305.287 147.544 351 205 351C263.542 351 311 303.542 311 245V165C311 106.458 263.542 59 205 59C146.458 59 99 106.458 99 165V202.76L75 209.164V165C75 93.203 133.203 35 205 35C275.18 35 332.371 90.6101 334.912 160.169L354.664 154.876ZM205 147C195.059 147 187 155.059 187 165V200.003L223 190.356V165C223 155.059 214.941 147 205 147Z" fill="#00A280"/>
</svg>
