<?xml version="1.0" encoding="UTF-8"?>
<svg version="1.1" viewBox="0 0 2048 749" width="1280" height="1280" xmlns="http://www.w3.org/2000/svg">
<path transform="translate(314,116)" d="m0 0h14l10 3 13 7 14 10 10 8 14 8 4 1 14-7 10-8 18-13 14-7 7-2h14l11 4 9 7 7 10 7 16 9 29 6 12 9 2 45 1 12 2 12 5 9 8 6 11 1 4v19l-5 19-8 24-1 5v10l11 10 15 10 13 10 7 6 8 11 4 11v15l-4 10-6 9-9 9-19 14-9 6-10 9-1 1v9l4 15 9 27 2 12v9l-3 11-6 10-9 7-9 4-9 2-10 1h-36l-12 2-8 16-8 26-5 12-6 10-8 8-9 5-9 2-13-1-12-5-12-7-13-10-11-8-12-6-6 1-12 7-11 9-9 7-15 8-13 4-11 1-10-3-9-6-8-9-7-14-7-21-5-16-5-10-13-2h-35l-16-2-13-5-10-9-5-8-2-7v-19l5-19 8-24 1-5v-9l-9-9-12-8-14-10-12-11-6-8-4-8-1-4v-15l4-11 8-11 10-9 17-12 10-7 9-8v-9l-4-15-9-27-2-12v-10l4-13 6-8 7-6 8-4 14-3 47-1 9-2 6-13 9-29 6-14 8-11 9-7z" fill="#4AAEF8"/>
<path transform="translate(1272,445)" d="m0 0h29l6 9 17 29 26 44 12 22 9 17 1-121h25v161h-29l-10-16-14-24-29-49-15-29-2-4-1 122h-25z" fill="#185D95"/>
<path transform="translate(886,154)" d="m0 0h29l8 13 13 22 17 29 15 25 17 33 1-122h25v161h-29l-6-9-17-29-15-25-14-24-12-23-6-11-1 121h-25z" fill="#AC2C52"/>
<path transform="translate(1051,154)" d="m0 0h67l16 4 12 6 10 8 8 11 7 15 4 18 1 11v16l-3 21-5 15-8 13-7 8-10 7-12 5-15 3h-65l-1-3v-153zm26 23v115h37l9-2 9-5 7-6 5-8 3-10 1-7v-39l-3-14-4-8-7-8-8-5-11-3z" fill="#AC2C52"/>
<path transform="translate(1543,151)" d="m0 0h16l15 3 16 8 10 9 6 7 8 16 4 13 2 13v29l-3 17-5 14-6 11-9 10-8 7-13 6-11 3-8 1h-13l-16-3-12-5-11-8-9-10-8-15-5-17-2-18v-16l2-17 5-17 8-15 10-11 14-9 11-4zm5 23-11 2-10 5-8 7-6 11-3 9-1 8v37l2 12 4 10 7 9 8 6 11 4 11 1 12-2 12-6 8-8 6-12 2-9v-47l-3-11-5-10-9-9-10-5-11-2z" fill="#AC2C52"/>
<path transform="translate(1208,154)" d="m0 0h103v23h-77v45h70v23h-70v47h77v23h-103z" fill="#AC2C52"/>
<path transform="translate(1113,445)" d="m0 0h25l1 105 2 13 4 9 7 8 11 4h19l10-3 8-7 4-8 2-8 1-27v-80l1-6h25v110l-3 17-5 13-6 8-8 7-10 5-13 3-10 1h-10l-16-2-12-4-9-6-7-7-7-14-3-12-1-8z" fill="#195E96"/>
<path transform="translate(1477,445)" d="m0 0h33l15 43 24 71 14 41 1 6h-27l-14-42v-2l-60 1-13 40-2 3h-26l3-11 16-47 15-43 20-59zm15 24-14 41-9 28v2h47l-2-9-18-55-3-7z" fill="#185E95"/>
<path transform="translate(1653,154)" d="m0 0h78l12 3 10 6 7 7 7 14 2 10v16l-3 13-5 10-8 9-9 5-9 3-7 1h-49v64h-26zm26 23v51h47l8-3 6-7 1-3v-26l-4-7-7-4-2-1z" fill="#AC2C52"/>
<path transform="translate(1016,442)" d="m0 0h20l15 3 16 8 12 11 1 4-10 9-6 5h-3l-4-5-11-7-8-3-5-1h-16l-10 3-7 5-3 7v12l4 8 10 5 16 4 21 5 13 5 9 7 7 8 4 9 1 5v19l-4 13-6 9-5 5-8 6-12 5-9 2-10 1h-9l-15-2-12-4-11-6-12-10-4-6 9-9 8-7 4 2 8 8 10 6 10 3 15 1 11-2 10-6 5-10v-14l-3-6-6-5-11-4-29-6-13-5-9-6-8-8-4-8-2-8v-17l4-13 7-9 8-7 10-5 11-3z" fill="#195F96"/>
<path transform="translate(462,326)" d="m0 0h8l10 5 4 6 1 3v9l-4 8-11 9-19 14-21 16-19 14-21 16-13 9-4 2h-10l-6-3-10-9-41-41-5-8-1-8 3-8 4-5 5-3 10-1 8 3 38 38 5-1 21-16 19-14 21-16 19-14 6-4z" fill="#FDFDFD"/>
<path transform="translate(1398,151)" d="m0 0h16l14 3 10 4 13 10 8 11 4 7v2l-20 11-3-1-5-9-5-6-8-5-6-2-13-1-11 2-10 5-7 7-5 10-3 11-1 26 1 23 4 14 6 9 8 7 11 4 11 1 12-2 10-5 8-9 6-10 11 6 9 6-1 5-9 13-7 7-11 7-11 4-12 2h-13l-16-3-12-5-9-7-8-8-7-11-5-13-3-14-1-9v-28l3-18 5-14 6-11 9-10 7-6 12-6 11-3z" fill="#AC2C52"/>
<path transform="translate(1560,445)" d="m0 0h122v23h-48v138h-26v-138h-48z" fill="#185E95"/>
<path transform="translate(1791,154)" d="m0 0h70v21h-22v119h22v21h-70v-21l21-1 1-118h-22z" fill="#AC2C52"/>
<path transform="translate(783,154)" d="m0 0h70v21h-22v119h22v21h-70v-21h22v-119h-22z" fill="#AC2C52"/>
</svg>
