<svg width="410" height="410" viewBox="0 0 410 410" fill="none" xmlns="http://www.w3.org/2000/svg">
<rect x="28" width="354" height="410" rx="170" fill="white"/>
<path fill-rule="evenodd" clip-rule="evenodd" d="M239.027 209.043V239.567C239.027 258.083 224.016 273.093 205.5 273.093C186.984 273.093 171.973 258.083 171.973 239.567V170.5C171.973 151.984 186.984 136.973 205.5 136.973C224.016 136.973 239.027 151.984 239.027 170.5V187.592L259.027 182.233V170.5C259.027 140.938 235.062 116.973 205.5 116.973C175.938 116.973 151.973 140.938 151.973 170.5V239.567C151.973 269.129 175.938 293.093 205.5 293.093C235.062 293.093 259.027 269.129 259.027 239.567V203.684L239.027 209.043Z" fill="#00A280"/>
<path fill-rule="evenodd" clip-rule="evenodd" d="M315 188.492V239.567C315 300.042 265.975 349.067 205.5 349.067C147.568 349.067 100.143 304.078 96.2573 247.132L76.6271 252.392C83.0666 317.892 138.307 369.067 205.5 369.067C277.021 369.067 335 311.088 335 239.567V183.133L315 188.492ZM334.71 161.76C330.215 94.3147 274.084 41 205.5 41C133.979 41 76 98.9792 76 170.5V231.109L140.653 213.785L140.678 213.878L166.215 207.035L161.746 190.357L133.987 197.763V170.5C133.987 131.004 166.004 98.9866 205.5 98.9866C244.996 98.9866 277.013 131.004 277.013 170.5V239.567C277.013 279.062 244.996 311.08 205.5 311.08C166.004 311.08 133.987 279.062 133.987 239.567V237.023L114.029 242.37C115.511 291.615 155.896 331.08 205.5 331.08C256.041 331.08 297.013 290.108 297.013 239.567V170.5C297.013 119.959 256.041 78.9866 205.5 78.9866C154.959 78.9866 113.987 119.959 113.987 170.5V203.1L96 207.899V170.5C96 110.025 145.025 61 205.5 61C264.823 61 313.127 108.174 314.947 167.055L334.71 161.76ZM205.5 154.96C196.917 154.96 189.96 161.917 189.96 170.5V200.719L221.04 192.391V170.5C221.04 161.917 214.083 154.96 205.5 154.96Z" fill="#00A280"/>
</svg>
